<svg width="28" height="28" viewBox="0 0 28 28" fill="none" xmlns="http://www.w3.org/2000/svg">
<path d="M13.65 10.2648C12.9805 10.2648 12.326 10.4633 11.7693 10.8353C11.2126 11.2073 10.7787 11.736 10.5225 12.3545C10.2663 12.9731 10.1992 13.6538 10.3298 14.3104C10.4605 14.9671 10.7829 15.5703 11.2563 16.0437C11.7297 16.5171 12.3329 16.8395 12.9896 16.9702C13.6462 17.1008 14.3269 17.0337 14.9455 16.7775C15.564 16.5213 16.0927 16.0874 16.4647 15.5307C16.8367 14.974 17.0352 14.3195 17.0352 13.65C17.0352 13.2054 16.9476 12.7653 16.7775 12.3545C16.6074 11.9438 16.358 11.5706 16.0437 11.2563C15.7294 10.942 15.3562 10.6926 14.9455 10.5225C14.5347 10.3524 14.0946 10.2648 13.65 10.2648ZM27.2045 6.92055C27.1973 5.86644 27.0032 4.82196 26.6312 3.83565C26.3572 3.11392 25.9333 2.45849 25.3874 1.91262C24.8415 1.36674 24.1861 0.94283 23.4644 0.66885C22.478 0.296838 21.4336 0.102731 20.3794 0.0955499C18.6186 -9.15304e-08 18.0999 0 13.65 0C9.2001 0 8.6814 -9.15304e-08 6.92055 0.0955499C5.86644 0.102731 4.82196 0.296838 3.83565 0.66885C3.11392 0.94283 2.45849 1.36674 1.91262 1.91262C1.36674 2.45849 0.94283 3.11392 0.66885 3.83565C0.296838 4.82196 0.102731 5.86644 0.0955499 6.92055C-9.15304e-08 8.6814 0 9.2001 0 13.65C0 18.0999 -9.15304e-08 18.6186 0.0955499 20.3794C0.110243 21.4373 0.304087 22.485 0.66885 23.478C0.941615 24.1964 1.36518 24.8481 1.911 25.389C2.45453 25.9382 3.11137 26.3621 3.83565 26.6312C4.82196 27.0032 5.86644 27.1973 6.92055 27.2045C8.6814 27.3 9.2001 27.3 13.65 27.3C18.0999 27.3 18.6186 27.3 20.3794 27.2045C21.4336 27.1973 22.478 27.0032 23.4644 26.6312C24.1886 26.3621 24.8455 25.9382 25.389 25.389C25.9348 24.8481 26.3584 24.1964 26.6312 23.478C27.0028 22.4869 27.1969 21.438 27.2045 20.3794C27.3 18.6186 27.3 18.0999 27.3 13.65C27.3 9.2001 27.3 8.6814 27.2045 6.92055ZM23.7373 17.8405C23.6935 18.6829 23.5138 19.5126 23.205 20.2976C22.94 20.9523 22.5461 21.5471 22.0466 22.0466C21.5471 22.5461 20.9523 22.94 20.2976 23.205C19.5052 23.4966 18.6708 23.6579 17.8269 23.6828C16.7486 23.6828 16.4619 23.6828 13.65 23.6828C10.8381 23.6828 10.5514 23.6828 9.4731 23.6828C8.62916 23.6579 7.79482 23.4966 7.00245 23.205C6.32555 22.9535 5.71427 22.5522 5.2143 22.0311C4.71972 21.5414 4.33776 20.9498 4.095 20.2976C3.80229 19.506 3.64538 18.6707 3.6309 17.8269C3.6309 16.7486 3.6309 16.4619 3.6309 13.65C3.6309 10.8381 3.6309 10.5514 3.6309 9.4731C3.64538 8.62929 3.80229 7.79399 4.095 7.00245C4.34654 6.32555 4.74784 5.71427 5.2689 5.2143C5.76076 4.72239 6.35171 4.34083 7.00245 4.095C7.79482 3.80344 8.62916 3.64211 9.4731 3.61725C10.5514 3.61725 10.8381 3.61725 13.65 3.61725C16.4619 3.61725 16.7486 3.61725 17.8269 3.61725C18.6708 3.64211 19.5052 3.80344 20.2976 4.095C20.9745 4.34654 21.5857 4.74784 22.0857 5.2689C22.5803 5.75859 22.9622 6.35016 23.205 7.00245C23.4966 7.79482 23.6579 8.62916 23.6828 9.4731C23.6828 10.5514 23.6828 10.8381 23.6828 13.65C23.6828 16.4619 23.7783 16.7486 23.7373 17.8269V17.8405ZM21.5534 7.68495C21.3908 7.24403 21.1346 6.84362 20.8023 6.51134C20.47 6.17906 20.0696 5.92282 19.6287 5.7603C19.0233 5.55045 18.3857 5.44879 17.745 5.46C16.6803 5.46 16.38 5.46 13.65 5.46C10.92 5.46 10.6197 5.46 9.555 5.46C8.91108 5.46629 8.27336 5.58645 7.6713 5.8149C7.23713 5.97004 6.84096 6.21582 6.50912 6.53589C6.17727 6.85597 5.91736 7.24301 5.74665 7.6713C5.54842 8.27923 5.45158 8.91563 5.46 9.555C5.46 10.6197 5.46 10.92 5.46 13.65C5.46 16.38 5.46 16.6803 5.46 17.745C5.47353 18.3882 5.59345 19.0247 5.8149 19.6287C5.97742 20.0696 6.23366 20.47 6.56594 20.8023C6.89822 21.1346 7.29863 21.3908 7.73955 21.5534C8.32195 21.7675 8.93482 21.8873 9.555 21.9082C10.6197 21.9082 10.92 21.9082 13.65 21.9082C16.38 21.9082 16.6803 21.9082 17.745 21.9082C18.3889 21.902 19.0266 21.7818 19.6287 21.5534C20.0696 21.3908 20.47 21.1346 20.8023 20.8023C21.1346 20.47 21.3908 20.0696 21.5534 19.6287C21.7818 19.0266 21.902 18.3889 21.9082 17.745C21.9082 16.6803 21.9082 16.38 21.9082 13.65C21.9082 10.92 21.9082 10.6197 21.9082 9.555C21.9086 8.91044 21.7883 8.27152 21.5534 7.6713V7.68495ZM13.65 18.8643C12.9659 18.8643 12.2885 18.7293 11.6566 18.4671C11.0248 18.2049 10.4509 17.8206 9.96775 17.3362C9.48465 16.8519 9.10186 16.2769 8.8413 15.6444C8.58075 15.0118 8.44755 14.3341 8.44935 13.65C8.44935 12.6181 8.75551 11.6095 9.32907 10.7517C9.90264 9.8939 10.7178 9.22558 11.6714 8.83132C12.625 8.43707 13.6741 8.33461 14.6859 8.53691C15.6978 8.73922 16.6269 9.23719 17.3555 9.96779C18.0842 10.6984 18.5798 11.6288 18.7794 12.6411C18.9791 13.6535 18.8739 14.7024 18.4771 15.6549C18.0804 16.6075 17.4099 17.4209 16.5506 17.9922C15.6913 18.5635 14.6819 18.867 13.65 18.8643ZM19.11 9.45945C18.8083 9.42751 18.529 9.28503 18.3261 9.05946C18.1231 8.8339 18.0108 8.5412 18.0108 8.23777C18.0108 7.93435 18.1231 7.64165 18.3261 7.41609C18.529 7.19052 18.8083 7.04804 19.11 7.0161C19.4117 7.04804 19.691 7.19052 19.8939 7.41609C20.0969 7.64165 20.2092 7.93435 20.2092 8.23777C20.2092 8.5412 20.0969 8.8339 19.8939 9.05946C19.691 9.28503 19.4117 9.42751 19.11 9.45945Z" fill="#FFC57B"/>
</svg>
