<svg width="24" height="24" viewBox="0 0 24 24" fill="none" xmlns="http://www.w3.org/2000/svg">
<mask id="mask0_74_2456" style="mask-type:luminance" maskUnits="userSpaceOnUse" x="0" y="0" width="24" height="24">
<path d="M24 0H0V24H24V0Z" fill="white"/>
</mask>
<g mask="url(#mask0_74_2456)">
<path d="M19.5756 1.5H3.89941C2.57425 1.5 1.5 2.57425 1.5 3.89941V19.5756C1.5 20.9007 2.57425 21.975 3.89941 21.975H19.5756C20.9007 21.975 21.975 20.9007 21.975 19.5756V3.89941C21.975 2.57425 20.9007 1.5 19.5756 1.5Z" fill="#FFC57B"/>
<path d="M15.7327 5.49902H17.8493L13.2252 10.7841L18.6651 17.976H14.4057L11.0696 13.6142L7.25225 17.976H5.13439L10.0804 12.323L4.86182 5.49902H9.22937L12.245 9.48589L15.7327 5.49902ZM14.9899 16.7091H16.1627L8.59208 6.69937H7.33351L14.9899 16.7091Z" fill="#1A1518"/>
</g>
</svg>
