<svg width="28" height="28" viewBox="0 0 28 28" fill="none" xmlns="http://www.w3.org/2000/svg">
<path d="M22.1812 0C23.5913 0 24.7969 0.500618 25.7981 1.50186C26.7994 2.50309 27.3 3.70872 27.3 5.11875V22.1812C27.3 23.5913 26.7994 24.7969 25.7981 25.7981C24.7969 26.7994 23.5913 27.3 22.1812 27.3H18.8398V16.7248H22.3768L22.91 12.6014H18.8398V9.9709C18.8398 9.30736 18.9791 8.8097 19.2575 8.47793C19.536 8.14616 20.0781 7.98027 20.8838 7.98027L23.0521 7.9625V4.2834C22.3057 4.17676 21.2511 4.12344 19.8885 4.12344C18.277 4.12344 16.9884 4.5974 16.0228 5.54531C15.0571 6.49323 14.5742 7.83216 14.5742 9.56211V12.6014H11.0195V16.7248H14.5742V27.3H5.11875C3.70872 27.3 2.50309 26.7994 1.50186 25.7981C0.500618 24.7969 0 23.5913 0 22.1812V5.11875C0 3.70872 0.500618 2.50309 1.50186 1.50186C2.50309 0.500618 3.70872 0 5.11875 0H22.1812Z" fill="#FFC57B"/>
</svg>
