<svg width="28" height="28" viewBox="0 0 28 28" fill="none" xmlns="http://www.w3.org/2000/svg">
<path d="M27.3 6.21075C27.2847 5.62185 27.2391 5.03413 27.1635 4.4499C27.0616 3.93819 26.8917 3.44241 26.6585 2.9757C26.4145 2.46943 26.0868 2.00795 25.6893 1.6107C25.2881 1.21786 24.8274 0.890786 24.3243 0.64155C23.857 0.412836 23.3612 0.247575 22.8501 0.15015C22.2714 0.0634716 21.6879 0.0133225 21.1029 0H6.21075C5.62185 0.0153377 5.03413 0.0608975 4.4499 0.1365C3.93819 0.238422 3.44241 0.408276 2.9757 0.64155C2.46943 0.885526 2.00795 1.21317 1.6107 1.6107C1.21786 2.01189 0.890786 2.47255 0.64155 2.9757C0.412836 3.44303 0.247575 3.93881 0.15015 4.4499C0.0634716 5.02857 0.0133225 5.61213 0 6.1971C0 6.45645 0 6.825 0 6.9342V20.3658C0 20.516 0 20.8436 0 21.0893C0.0153377 21.6782 0.0608975 22.2659 0.1365 22.8501C0.238422 23.3618 0.408276 23.8576 0.64155 24.3243C0.885526 24.8306 1.21317 25.292 1.6107 25.6893C2.01189 26.0821 2.47255 26.4092 2.9757 26.6585C3.44303 26.8872 3.93881 27.0524 4.4499 27.1498C5.02857 27.2365 5.61213 27.2867 6.1971 27.3H21.0893C21.6782 27.2847 22.2659 27.2391 22.8501 27.1635C23.3618 27.0616 23.8576 26.8917 24.3243 26.6585C24.8306 26.4145 25.292 26.0868 25.6893 25.6893C26.0821 25.2881 26.4092 24.8274 26.6585 24.3243C26.8872 23.857 27.0524 23.3612 27.1498 22.8501C27.2365 22.2714 27.2867 21.6879 27.3 21.1029C27.3 20.8435 27.3 20.516 27.3 20.3658V6.9342C27.3 6.825 27.3 6.45645 27.3 6.21075ZM13.9639 23.205C12.3247 23.1969 10.7141 22.7743 9.282 21.9765L4.095 23.3415L5.46 18.2637C4.57973 16.7847 4.10863 15.0981 4.095 13.377C4.10044 11.4427 4.67813 9.55325 5.75533 7.94663C6.83253 6.34001 8.36106 5.08808 10.1484 4.3485C11.9357 3.60892 13.902 3.41478 15.7994 3.79052C17.6969 4.16626 19.4408 5.09508 20.8114 6.46C22.182 7.82492 23.1181 9.5649 23.5017 11.4608C23.8853 13.3567 23.6993 15.3237 22.9672 17.1141C22.2351 18.9045 20.9895 20.4382 19.3874 21.5221C17.7852 22.606 15.8982 23.1915 13.9639 23.205ZM13.9639 5.28255C12.5168 5.29911 11.0999 5.69885 9.85742 6.44108C8.61499 7.1833 7.59142 8.2415 6.89092 9.50793C6.19043 10.7744 5.83804 12.2038 5.86962 13.6507C5.90119 15.0976 6.31562 16.5103 7.0707 17.745L7.2618 18.059L6.4428 21.0483L9.555 20.202L9.8553 20.3794C11.0969 21.1108 12.5094 21.5016 13.9503 21.5124C16.1224 21.5124 18.2056 20.6495 19.7415 19.1136C21.2774 17.5777 22.1403 15.4945 22.1403 13.3224C22.1403 11.1503 21.2774 9.06712 19.7415 7.5312C18.2056 5.99527 16.1224 5.1324 13.9503 5.1324L13.9639 5.28255ZM18.7414 16.9123C18.5627 17.2106 18.3233 17.4679 18.0388 17.6678C17.7543 17.8676 17.431 18.0056 17.0898 18.0726C16.58 18.1658 16.0552 18.133 15.561 17.9771C15.096 17.8317 14.6402 17.6585 14.196 17.4583C12.5085 16.6116 11.0694 15.3418 10.0191 13.7729C9.44837 13.046 9.10208 12.1684 9.02265 11.2476C9.01452 10.8651 9.08688 10.4852 9.23502 10.1325C9.38317 9.77973 9.6038 9.46208 9.8826 9.2001C9.96472 9.10699 10.0655 9.03215 10.1783 8.98042C10.2912 8.92869 10.4137 8.90123 10.5378 8.8998H10.92C11.0702 8.8998 11.2749 8.8998 11.466 9.32295C11.6571 9.7461 12.1622 11.0155 12.2304 11.1384C12.2639 11.2039 12.2814 11.2764 12.2814 11.35C12.2814 11.4235 12.2639 11.4961 12.2304 11.5616C12.1701 11.7099 12.0872 11.848 11.9847 11.9711C11.8618 12.1212 11.7254 12.2987 11.6162 12.4079C11.507 12.5171 11.3705 12.6536 11.507 12.8993C11.8783 13.526 12.3381 14.0961 12.872 14.5918C13.4533 15.1056 14.1181 15.5164 14.8376 15.8067C15.0833 15.9296 15.2334 15.9159 15.3699 15.8067C15.5064 15.6975 15.9841 15.0969 16.1479 14.8512C16.3118 14.6055 16.4755 14.6465 16.6939 14.7283C16.9123 14.8103 18.1272 15.3972 18.3729 15.5201C18.6186 15.6429 18.7688 15.6975 18.837 15.8067C18.8962 16.164 18.8633 16.5304 18.7414 16.8714V16.9123Z" fill="#FFC57B"/>
</svg>
